HIERARCHY
ROOT Hips
{
	OFFSET 0 0 0
	CHANNELS 6 Xposition Yposition Zposition Zrotation Yrotation Xrotation
	JOINT LeftThigh
	{
		OFFSET 8.209213 0 -5.776854
		CHANNELS 3 Zrotation Yrotation Xrotation
		JOINT LeftLeg
		{
			OFFSET 0 0 -41.350112
			CHANNELS 3 Zrotation Yrotation Xrotation
			JOINT LeftFoot
			{
				OFFSET 0 0 -38.420225
				CHANNELS 3 Zrotation Yrotation Xrotation
				End Site
				{
					OFFSET 0 -13.011281 -4.889596
				}
			}
		}
	}
	JOINT RightThigh
	{
		OFFSET -8.209213 0 -5.776854
		CHANNELS 3 Zrotation Yrotation Xrotation
		JOINT RightLeg
		{
			OFFSET 0 0 -41.350112
			CHANNELS 3 Zrotation Yrotation Xrotation
			JOINT RightFoot
			{
				OFFSET 0 0 -38.420225
				CHANNELS 3 Zrotation Yrotation Xrotation
				End Site
				{
					OFFSET 0 -13.011281 -4.889596
				}
			}
		}
	}
	JOINT SpineLow
	{
		OFFSET 0 0 4.606742
		CHANNELS 3 Zrotation Yrotation Xrotation
		JOINT SpineMid
		{
			OFFSET 0 0 12.592067
			CHANNELS 3 Zrotation Yrotation Xrotation
			JOINT Chest
			{
				OFFSET 0 0 12.592067
				CHANNELS 3 Zrotation Yrotation Xrotation
				JOINT LeftShoulder
				{
					OFFSET 7.370787 1.382022 9.213483
					CHANNELS 3 Zrotation Yrotation Xrotation
					JOINT LeftArm
					{
						OFFSET 8.937079 0 4.146067
						CHANNELS 3 Zrotation Yrotation Xrotation
						JOINT LeftForearm
						{
							OFFSET 0 0 25.158337
							CHANNELS 3 Zrotation Yrotation Xrotation
							JOINT LeftHand
							{
								OFFSET 0 0 24.597236
								CHANNELS 3 Zrotation Yrotation Xrotation
							}
						}
					}
				}
				JOINT RightShoulder
				{
					OFFSET -7.370787 1.382022 9.213483
					CHANNELS 3 Zrotation Yrotation Xrotation
					JOINT RightArm
					{
						OFFSET -8.937079 0 4.146067
						CHANNELS 3 Zrotation Yrotation Xrotation
						JOINT RightForearm
						{
							OFFSET 0 0 -25.158337
							CHANNELS 3 Zrotation Yrotation Xrotation
							JOINT RightHand
							{
								OFFSET 0 0 -24.597236
								CHANNELS 3 Zrotation Yrotation Xrotation
							}
						}
					}
				}
				JOINT Neck
				{
					OFFSET 0 0 14.741573
					CHANNELS 3 Zrotation Yrotation Xrotation
					JOINT Head
					{
						OFFSET 0 0 11.05618
						CHANNELS 3 Zrotation Yrotation Xrotation
						End Site
						{
							OFFSET 0 0 7.325843
						}
					}
				}
			}
		}
	}
}
MOTION
Frames: 6
Frame Time: 0.01
-11.421313 89.4450355985924 -0.594125 -179.889537 26.17821 85.533053 1.365508 -14.040001 1.214039 -4.193151 0.649875 0.228837 2.367727 -0.084587 0.756933 -0.7316 10.521445 1.465678 0.305616 -0.579811 2.023171 0.423264 0.709517 0.951622 0.211672 0.172067 0.024756 0.57877 0.470108 0.069176 0.57877 0.470108 0.069176 -5.947228 6.707134 20.387583 101.207992 39.718941 155.666713 -18.897596 6.320192 34.32967 78.203315 -2.206992 2.852887 5.604797 -14.318181 13.160153 57.954707 48.897339 -11.868477 -18.028043 2.749581 -32.486678 79.778348 -11.999238 4.038063 -2.50357 -0.716629 2.698954 -1.874531 -0.548552 2.021294
-11.410932 89.4501527011711 -0.644303 -179.891602 26.162065 85.421221 1.388173 -14.035679 1.359085 -4.315184 0.658334 0.2137 2.359949 -0.090551 0.755566 -0.851478 10.564527 1.62636 0.368965 -0.592426 1.969282 0.444538 0.720058 0.973881 0.206278 0.173035 0.034098 0.564094 0.472678 0.094681 0.564094 0.472678 0.094681 -5.963198 6.691415 20.343782 101.32056 39.608512 155.740303 -18.922165 6.429896 34.492436 78.166137 -2.186371 2.835742 5.627978 -14.250231 13.11148 57.921942 48.776465 -11.905927 -17.979754 2.673234 -32.558587 79.78216 -11.859758 4.023659 -2.477548 -0.683419 2.729671 -1.855131 -0.523653 2.044498
-11.41196 89.455229543261 -0.672895 -179.883909 26.185997 85.330973 1.475012 -14.040762 1.464688 -4.411081 0.658869 0.205198 2.344892 -0.092486 0.75155 -0.847655 10.562569 1.738488 0.336594 -0.58001 1.973343 0.487472 0.722983 0.979233 0.207312 0.175536 0.04248 0.566983 0.479441 0.117621 0.566983 0.479441 0.117621 -5.942878 6.645998 20.258787 101.486625 39.467336 155.788644 -18.981186 6.510749 34.661008 78.09189 -2.195803 2.812651 5.575054 -14.214656 13.078496 57.758066 48.727547 -12.01098 -17.961316 2.63985 -32.591755 79.795859 -11.836618 3.997259 -2.444281 -0.666136 2.7481 -1.830239 -0.510615 2.058427
-11.407409 89.4570407119015 -0.691508 -179.885691 26.216088 85.237277 1.615626 -14.049215 1.55376 -4.573014 0.669095 0.196438 2.327261 -0.098163 0.750449 -0.916654 10.597915 1.880427 0.330094 -0.566435 1.955289 0.557863 0.708242 0.987487 0.215256 0.173637 0.048051 0.588735 0.474188 0.13289 0.588735 0.474188 0.13289 -5.963662 6.659375 20.221343 101.831158 39.489608 155.942809 -18.83458 6.663237 34.851666 78.109196 -2.181993 2.892973 5.578399 -14.14284 13.030243 57.815936 48.614872 -12.012937 -17.963311 2.592649 -32.631389 79.785153 -11.735342 4.0123 -2.453555 -0.620463 2.776436 -1.837375 -0.476515 2.079856
-11.411318 89.4613076937794 -0.710344 -179.877679 26.258242 85.154199 1.671539 -14.056524 1.659993 -4.614709 0.669223 0.185371 2.313637 -0.100376 0.750073 -0.875689 10.590261 1.984326 0.289187 -0.554777 1.945853 0.590951 0.711887 1.015937 0.220527 0.176079 0.056848 0.603213 0.480772 0.156994 0.603213 0.480772 0.156994 -5.945188 6.607302 20.152155 102.007597 39.404466 155.99362 -18.776469 6.737032 35.024679 78.036963 -2.185546 2.853281 5.538927 -14.1201 12.983813 57.660882 48.575544 -12.08221 -17.930127 2.548155 -32.691435 79.805944 -11.724682 3.987201 -2.429605 -0.605648 2.779697 -1.819477 -0.465307 2.082385
-11.417079 89.4626142508631 -0.711511 -179.876764 26.293829 85.073138 1.822312 -14.065386 1.719387 -4.729678 0.674695 0.183459 2.26912 -0.102297 0.755532 -0.898464 10.615699 2.108774 0.260002 -0.55454 1.934454 0.644197 0.711684 1.020291 0.2324 0.173871 0.061365 0.635693 0.474663 0.169408 0.635693 0.474663 0.169408 -5.975417 6.628927 20.114717 102.317561 39.446503 156.120603 -18.599945 6.829635 35.170613 78.106523 -2.170714 2.909295 5.54909 -14.055483 12.93224 57.729941 48.4823 -12.080728 -17.926238 2.491114 -32.706979 79.796315 -11.64613 4.015703 -2.453859 -0.564683 2.794627 -1.837843 -0.434752 2.093726
